<svg width="479" height="98" viewBox="0 0 479 98" fill="none" xmlns="http://www.w3.org/2000/svg">
<path d="M33.44 78.96C29.12 78.96 25.0933 78.2667 21.36 76.88C17.68 75.44 14.48 73.4133 11.76 70.8C9.04 68.1867 6.90667 65.12 5.36 61.6C3.86667 58.08 3.12 54.2133 3.12 50C3.12 45.7867 3.86667 41.92 5.36 38.4C6.90667 34.88 9.04 31.8133 11.76 29.2C14.5333 26.5867 17.76 24.5867 21.44 23.2C25.12 21.76 29.1467 21.04 33.52 21.04C38.3733 21.04 42.7467 21.8933 46.64 23.6C50.5867 25.2533 53.8933 27.7067 56.56 30.96L48.24 38.64C46.32 36.4533 44.1867 34.8267 41.84 33.76C39.4933 32.64 36.9333 32.08 34.16 32.08C31.5467 32.08 29.1467 32.5067 26.96 33.36C24.7733 34.2133 22.88 35.44 21.28 37.04C19.68 38.64 18.4267 40.5333 17.52 42.72C16.6667 44.9067 16.24 47.3333 16.24 50C16.24 52.6667 16.6667 55.0933 17.52 57.28C18.4267 59.4667 19.68 61.36 21.28 62.96C22.88 64.56 24.7733 65.7867 26.96 66.64C29.1467 67.4933 31.5467 67.92 34.16 67.92C36.9333 67.92 39.4933 67.3867 41.84 66.32C44.1867 65.2 46.32 63.52 48.24 61.28L56.56 68.96C53.8933 72.2133 50.5867 74.6933 46.64 76.4C42.7467 78.1067 38.3467 78.96 33.44 78.96ZM60.5119 78V22H73.4719V78H60.5119ZM93.5619 78V32.56H75.6419V22H124.442V32.56H106.522V78H93.5619ZM126.615 78V22H139.575V78H126.615ZM172.945 78.96C164.998 78.96 158.785 76.7467 154.305 72.32C149.825 67.8933 147.585 61.5733 147.585 53.36V22H160.545V52.88C160.545 58.2133 161.638 62.0533 163.825 64.4C166.012 66.7467 169.078 67.92 173.025 67.92C176.972 67.92 180.038 66.7467 182.225 64.4C184.412 62.0533 185.505 58.2133 185.505 52.88V22H198.305V53.36C198.305 61.5733 196.065 67.8933 191.585 72.32C187.105 76.7467 180.892 78.96 172.945 78.96ZM224.712 78.96C220.232 78.96 215.939 78.3733 211.832 77.2C207.725 75.9733 204.419 74.4 201.912 72.48L206.312 62.72C208.712 64.4267 211.539 65.84 214.792 66.96C218.099 68.0267 221.432 68.56 224.792 68.56C227.352 68.56 229.405 68.32 230.952 67.84C232.552 67.3067 233.725 66.5867 234.472 65.68C235.219 64.7733 235.592 63.7333 235.592 62.56C235.592 61.0667 235.005 59.8933 233.832 59.04C232.659 58.1333 231.112 57.4133 229.192 56.88C227.272 56.2933 225.139 55.76 222.792 55.28C220.499 54.7467 218.179 54.1067 215.832 53.36C213.539 52.6133 211.432 51.6533 209.512 50.48C207.592 49.3067 206.019 47.76 204.792 45.84C203.619 43.92 203.032 41.4667 203.032 38.48C203.032 35.28 203.885 32.3733 205.592 29.76C207.352 27.0933 209.965 24.9867 213.432 23.44C216.952 21.84 221.352 21.04 226.632 21.04C230.152 21.04 233.619 21.4667 237.032 22.32C240.445 23.12 243.459 24.3467 246.072 26L242.072 35.84C239.459 34.3467 236.845 33.2533 234.232 32.56C231.619 31.8133 229.059 31.44 226.552 31.44C224.045 31.44 221.992 31.7333 220.392 32.32C218.792 32.9067 217.645 33.68 216.952 34.64C216.259 35.5467 215.912 36.6133 215.912 37.84C215.912 39.28 216.499 40.4533 217.672 41.36C218.845 42.2133 220.392 42.9067 222.312 43.44C224.232 43.9733 226.339 44.5067 228.632 45.04C230.979 45.5733 233.299 46.1867 235.592 46.88C237.939 47.5733 240.072 48.5067 241.992 49.68C243.912 50.8533 245.459 52.4 246.632 54.32C247.859 56.24 248.472 58.6667 248.472 61.6C248.472 64.7467 247.592 67.6267 245.832 70.24C244.072 72.8533 241.432 74.96 237.912 76.56C234.445 78.16 230.045 78.96 224.712 78.96ZM279.327 78.96C275.007 78.96 270.981 78.2667 267.247 76.88C263.567 75.44 260.367 73.4133 257.647 70.8C254.927 68.1867 252.794 65.12 251.247 61.6C249.754 58.08 249.007 54.2133 249.007 50C249.007 45.7867 249.754 41.92 251.247 38.4C252.794 34.88 254.927 31.8133 257.647 29.2C260.421 26.5867 263.647 24.5867 267.327 23.2C271.007 21.76 275.034 21.04 279.407 21.04C284.261 21.04 288.634 21.8933 292.527 23.6C296.474 25.2533 299.781 27.7067 302.447 30.96L294.128 38.64C292.207 36.4533 290.074 34.8267 287.727 33.76C285.381 32.64 282.821 32.08 280.047 32.08C277.434 32.08 275.034 32.5067 272.847 33.36C270.661 34.2133 268.767 35.44 267.167 37.04C265.567 38.64 264.314 40.5333 263.407 42.72C262.554 44.9067 262.127 47.3333 262.127 50C262.127 52.6667 262.554 55.0933 263.407 57.28C264.314 59.4667 265.567 61.36 267.167 62.96C268.767 64.56 270.661 65.7867 272.847 66.64C275.034 67.4933 277.434 67.92 280.047 67.92C282.821 67.92 285.381 67.3867 287.727 66.32C290.074 65.2 292.207 63.52 294.128 61.28L302.447 68.96C299.781 72.2133 296.474 74.6933 292.527 76.4C288.634 78.1067 284.234 78.96 279.327 78.96ZM342.112 78V22H352.832L376.672 61.52H370.992L394.432 22H405.072L405.232 78H393.072L392.992 40.64H395.232L376.512 72.08H370.672L351.552 40.64H354.272V78H342.112ZM408.918 78V22H419.638L443.478 61.52H437.798L461.238 22H471.878L472.038 78H459.878L459.798 40.64H462.038L443.318 72.08H437.478L418.358 40.64H421.078V78H408.918Z" fill="#156EB0"/>
<mask id="path-2-outside-1_2_88" maskUnits="userSpaceOnUse" x="285" y="20" width="64" height="60" fill="black">
<rect fill="white" x="285" y="20" width="64" height="60"/>
<path d="M317.148 77.912C312.943 77.912 309.041 77.228 305.444 75.86C301.897 74.492 298.807 72.5667 296.172 70.084C293.588 67.6013 291.561 64.688 290.092 61.344C288.673 58 287.964 54.352 287.964 50.4C287.964 46.448 288.673 42.8 290.092 39.456C291.561 36.112 293.613 33.1987 296.248 30.716C298.883 28.2333 301.973 26.308 305.52 24.94C309.067 23.572 312.917 22.888 317.072 22.888C321.277 22.888 325.128 23.572 328.624 24.94C332.171 26.308 335.236 28.2333 337.82 30.716C340.455 33.1987 342.507 36.112 343.976 39.456C345.445 42.7493 346.18 46.3973 346.18 50.4C346.18 54.352 345.445 58.0253 343.976 61.42C342.507 64.764 340.455 67.6773 337.82 70.16C335.236 72.592 332.171 74.492 328.624 75.86C325.128 77.228 321.303 77.912 317.148 77.912ZM317.072 67.424C319.453 67.424 321.632 67.0187 323.608 66.208C325.635 65.3973 327.408 64.232 328.928 62.712C330.448 61.192 331.613 59.3933 332.424 57.316C333.285 55.2387 333.716 52.9333 333.716 50.4C333.716 47.8667 333.285 45.5613 332.424 43.484C331.613 41.4067 330.448 39.608 328.928 38.088C327.459 36.568 325.711 35.4027 323.684 34.592C321.657 33.7813 319.453 33.376 317.072 33.376C314.691 33.376 312.487 33.7813 310.46 34.592C308.484 35.4027 306.736 36.568 305.216 38.088C303.696 39.608 302.505 41.4067 301.644 43.484C300.833 45.5613 300.428 47.8667 300.428 50.4C300.428 52.8827 300.833 55.188 301.644 57.316C302.505 59.3933 303.671 61.192 305.14 62.712C306.66 64.232 308.433 65.3973 310.46 66.208C312.487 67.0187 314.691 67.424 317.072 67.424Z"/>
</mask>
<path d="M317.148 77.912C312.943 77.912 309.041 77.228 305.444 75.86C301.897 74.492 298.807 72.5667 296.172 70.084C293.588 67.6013 291.561 64.688 290.092 61.344C288.673 58 287.964 54.352 287.964 50.4C287.964 46.448 288.673 42.8 290.092 39.456C291.561 36.112 293.613 33.1987 296.248 30.716C298.883 28.2333 301.973 26.308 305.52 24.94C309.067 23.572 312.917 22.888 317.072 22.888C321.277 22.888 325.128 23.572 328.624 24.94C332.171 26.308 335.236 28.2333 337.82 30.716C340.455 33.1987 342.507 36.112 343.976 39.456C345.445 42.7493 346.18 46.3973 346.18 50.4C346.18 54.352 345.445 58.0253 343.976 61.42C342.507 64.764 340.455 67.6773 337.82 70.16C335.236 72.592 332.171 74.492 328.624 75.86C325.128 77.228 321.303 77.912 317.148 77.912ZM317.072 67.424C319.453 67.424 321.632 67.0187 323.608 66.208C325.635 65.3973 327.408 64.232 328.928 62.712C330.448 61.192 331.613 59.3933 332.424 57.316C333.285 55.2387 333.716 52.9333 333.716 50.4C333.716 47.8667 333.285 45.5613 332.424 43.484C331.613 41.4067 330.448 39.608 328.928 38.088C327.459 36.568 325.711 35.4027 323.684 34.592C321.657 33.7813 319.453 33.376 317.072 33.376C314.691 33.376 312.487 33.7813 310.46 34.592C308.484 35.4027 306.736 36.568 305.216 38.088C303.696 39.608 302.505 41.4067 301.644 43.484C300.833 45.5613 300.428 47.8667 300.428 50.4C300.428 52.8827 300.833 55.188 301.644 57.316C302.505 59.3933 303.671 61.192 305.14 62.712C306.66 64.232 308.433 65.3973 310.46 66.208C312.487 67.0187 314.691 67.424 317.072 67.424Z" fill="#156EB0"/>
<path d="M305.444 75.86L304.724 77.726L304.733 77.7294L305.444 75.86ZM296.172 70.084L294.786 71.5262L294.793 71.5329L294.8 71.5396L296.172 70.084ZM290.092 61.344L288.251 62.1251L288.256 62.1369L288.261 62.1485L290.092 61.344ZM290.092 39.456L288.261 38.6515L288.256 38.6631L288.251 38.6749L290.092 39.456ZM305.52 24.94L304.8 23.074L304.8 23.074L305.52 24.94ZM328.624 24.94L327.895 26.8025L327.904 26.806L328.624 24.94ZM337.82 30.716L336.434 32.1582L336.441 32.1649L336.448 32.1716L337.82 30.716ZM343.976 39.456L342.145 40.2606L342.15 40.2709L343.976 39.456ZM343.976 61.42L345.807 62.2246L345.811 62.2144L343.976 61.42ZM337.82 70.16L339.191 71.6164L339.192 71.6156L337.82 70.16ZM328.624 75.86L327.904 73.994L327.895 73.9975L328.624 75.86ZM323.608 66.208L322.865 64.351L322.857 64.3543L322.849 64.3577L323.608 66.208ZM328.928 62.712L327.514 61.2978V61.2978L328.928 62.712ZM332.424 57.316L330.577 56.55L330.568 56.5694L330.561 56.5889L332.424 57.316ZM332.424 43.484L330.561 44.2111L330.568 44.2306L330.577 44.25L332.424 43.484ZM328.928 38.088L327.49 39.478L327.502 39.4902L327.514 39.5022L328.928 38.088ZM323.684 34.592L322.941 36.449V36.449L323.684 34.592ZM310.46 34.592L309.717 32.735L309.709 32.7383L309.701 32.7417L310.46 34.592ZM305.216 38.088L306.63 39.5022V39.5022L305.216 38.088ZM301.644 43.484L299.797 42.718L299.788 42.7374L299.781 42.7569L301.644 43.484ZM301.644 57.316L299.775 58.028L299.785 58.0552L299.797 58.082L301.644 57.316ZM305.14 62.712L303.702 64.102L303.714 64.1142L303.726 64.1262L305.14 62.712ZM310.46 66.208L309.717 68.065H309.717L310.46 66.208ZM317.148 77.912V75.912C313.163 75.912 309.505 75.2646 306.155 73.9906L305.444 75.86L304.733 77.7294C308.578 79.1914 312.722 79.912 317.148 79.912V77.912ZM305.444 75.86L306.164 73.994C302.847 72.7145 299.98 70.9245 297.544 68.6284L296.172 70.084L294.8 71.5396C297.633 74.2088 300.948 76.2695 304.724 77.726L305.444 75.86ZM296.172 70.084L297.558 68.6418C295.166 66.344 293.289 63.6485 291.923 60.5395L290.092 61.344L288.261 62.1485C289.834 65.7275 292.01 68.8586 294.786 71.5262L296.172 70.084ZM290.092 61.344L291.933 60.5629C290.628 57.487 289.964 54.1074 289.964 50.4H287.964H285.964C285.964 54.5966 286.718 58.513 288.251 62.1251L290.092 61.344ZM287.964 50.4H289.964C289.964 46.6926 290.628 43.313 291.933 40.2371L290.092 39.456L288.251 38.6749C286.718 42.287 285.964 46.2034 285.964 50.4H287.964ZM290.092 39.456L291.923 40.2605C293.285 37.1599 295.182 34.4686 297.62 32.1716L296.248 30.716L294.876 29.2604C292.045 31.9288 289.837 35.0641 288.261 38.6515L290.092 39.456ZM296.248 30.716L297.62 32.1716C300.056 29.8755 302.923 28.0855 306.24 26.806L305.52 24.94L304.8 23.074C301.024 24.5305 297.709 26.5912 294.876 29.2604L296.248 30.716ZM305.52 24.94L306.24 26.806C309.536 25.5345 313.141 24.888 317.072 24.888V22.888V20.888C312.694 20.888 308.597 21.6095 304.8 23.074L305.52 24.94ZM317.072 22.888V24.888C321.058 24.888 324.658 25.5356 327.895 26.8025L328.624 24.94L329.353 23.0775C325.598 21.6084 321.497 20.888 317.072 20.888V22.888ZM328.624 24.94L327.904 26.806C331.218 28.0843 334.053 29.8707 336.434 32.1582L337.82 30.716L339.206 29.2738C336.419 26.596 333.123 24.5317 329.344 23.074L328.624 24.94ZM337.82 30.716L336.448 32.1716C338.886 34.4686 340.783 37.1599 342.145 40.2605L343.976 39.456L345.807 38.6515C344.231 35.0641 342.023 31.9288 339.192 29.2604L337.82 30.716ZM343.976 39.456L342.15 40.2709C343.492 43.2809 344.18 46.6471 344.18 50.4H346.18H348.18C348.18 46.1476 347.398 42.2178 345.802 38.6411L343.976 39.456ZM346.18 50.4H344.18C344.18 54.0977 343.494 57.4985 342.141 60.6255L343.976 61.42L345.811 62.2144C347.397 58.5522 348.18 54.6063 348.18 50.4H346.18ZM343.976 61.42L342.145 60.6155C340.783 63.7161 338.886 66.4074 336.448 68.7044L337.82 70.16L339.192 71.6156C342.023 68.9472 344.231 65.8119 345.807 62.2245L343.976 61.42ZM337.82 70.16L336.449 68.7036C334.067 70.9459 331.227 72.7124 327.904 73.994L328.624 75.86L329.344 77.726C333.114 76.2716 336.405 74.2381 339.191 71.6164L337.82 70.16ZM328.624 75.86L327.895 73.9975C324.655 75.2654 321.08 75.912 317.148 75.912V77.912V79.912C321.525 79.912 325.601 79.1906 329.353 77.7225L328.624 75.86ZM317.072 67.424V69.424C319.684 69.424 322.124 68.9786 324.367 68.0583L323.608 66.208L322.849 64.3577C321.14 65.0588 319.223 65.424 317.072 65.424V67.424ZM323.608 66.208L324.351 68.065C326.625 67.1553 328.628 65.8408 330.342 64.1262L328.928 62.712L327.514 61.2978C326.188 62.6232 324.644 63.6394 322.865 64.351L323.608 66.208ZM328.928 62.712L330.342 64.1262C332.065 62.4033 333.38 60.3682 334.287 58.0431L332.424 57.316L330.561 56.5889C329.847 58.4185 328.831 59.9807 327.514 61.2978L328.928 62.712ZM332.424 57.316L334.271 58.082C335.245 55.733 335.716 53.1631 335.716 50.4H333.716H331.716C331.716 52.7036 331.325 54.7443 330.577 56.55L332.424 57.316ZM333.716 50.4H335.716C335.716 47.6369 335.245 45.067 334.271 42.718L332.424 43.484L330.577 44.25C331.325 46.0557 331.716 48.0964 331.716 50.4H333.716ZM332.424 43.484L334.287 42.7569C333.38 40.4318 332.065 38.3967 330.342 36.6738L328.928 38.088L327.514 39.5022C328.831 40.8193 329.847 42.3815 330.561 44.2111L332.424 43.484ZM328.928 38.088L330.366 36.698C328.694 34.9683 326.707 33.647 324.427 32.735L323.684 34.592L322.941 36.449C324.715 37.1583 326.223 38.1677 327.49 39.478L328.928 38.088ZM323.684 34.592L324.427 32.735C322.143 31.8216 319.685 31.376 317.072 31.376V33.376V35.376C319.222 35.376 321.171 35.741 322.941 36.449L323.684 34.592ZM317.072 33.376V31.376C314.459 31.376 312.001 31.8216 309.717 32.735L310.46 34.592L311.203 36.449C312.973 35.741 314.922 35.376 317.072 35.376V33.376ZM310.46 34.592L309.701 32.7417C307.478 33.6535 305.508 34.9677 303.802 36.6738L305.216 38.088L306.63 39.5022C307.964 38.1683 309.49 37.1518 311.219 36.4423L310.46 34.592ZM305.216 38.088L303.802 36.6738C302.088 38.3879 300.754 40.4096 299.797 42.718L301.644 43.484L303.491 44.25C304.257 42.4037 305.304 40.8281 306.63 39.5022L305.216 38.088ZM301.644 43.484L299.781 42.7569C298.868 45.0953 298.428 47.6515 298.428 50.4H300.428H302.428C302.428 48.0819 302.798 46.0273 303.507 44.2111L301.644 43.484ZM300.428 50.4H298.428C298.428 53.104 298.87 55.6529 299.775 58.028L301.644 57.316L303.513 56.604C302.796 54.7231 302.428 52.6613 302.428 50.4H300.428ZM301.644 57.316L299.797 58.082C300.748 60.3763 302.047 62.3903 303.702 64.102L305.14 62.712L306.578 61.322C305.294 59.9937 304.263 58.4104 303.491 56.55L301.644 57.316ZM305.14 62.712L303.726 64.1262C305.44 65.8408 307.443 67.1553 309.717 68.065L310.46 66.208L311.203 64.351C309.424 63.6394 307.88 62.6232 306.554 61.2978L305.14 62.712ZM310.46 66.208L309.717 68.065C312.001 68.9784 314.459 69.424 317.072 69.424V67.424V65.424C314.922 65.424 312.973 65.059 311.203 64.351L310.46 66.208Z" fill="#F8FAFC" mask="url(#path-2-outside-1_2_88)"/>
</svg>
